<svg width="48" height="48" viewBox="0 0 48 48" fill="none" xmlns="http://www.w3.org/2000/svg">
<path d="M44 1H4C2.34315 1 1 2.34315 1 4V44C1 45.6569 2.34315 47 4 47H44C45.6569 47 47 45.6569 47 44V4C47 2.34315 45.6569 1 44 1Z" stroke="#C8C8C8" stroke-width="2"/>
<path d="M23.3142 39.0855C31.6458 39.0855 38.3999 32.3314 38.3999 23.9998H23.3142V8.91406C14.9826 8.91406 8.22852 15.6682 8.22852 23.9998C8.22852 32.3314 14.9826 39.0855 23.3142 39.0855Z" fill="#C8C8C8"/>
<path d="M41.1423 21.2576C41.1423 12.926 34.3882 6.17188 26.0566 6.17188V21.2576H41.1423Z" fill="#C8C8C8"/>
</svg>
